<?xml version="1.0" standalone="no"?><!DOCTYPE svg PUBLIC "-//W3C//DTD SVG 1.1//EN" "http://www.w3.org/Graphics/SVG/1.1/DTD/svg11.dtd"><svg t="1516601085622" class="icon" style="" viewBox="0 0 1025 1024" version="1.1" xmlns="http://www.w3.org/2000/svg" p-id="1922" xmlns:xlink="http://www.w3.org/1999/xlink" width="200.1953125" height="200"><defs><style type="text/css"></style></defs><path d="M511.998 195.151c-139.865 0-253.245 113.379-253.245 253.245 0 139.868 198.462 353.918 198.462 353.918 30.256 35.318 79.774 35.506 109.734-0.188 0 0 198.3-213.863 198.3-353.731-0.001-139.865-113.38-253.245-253.249-253.245v0 0 0zM511.998 557.456c-64.71 0-117.151-52.446-117.151-117.151 0-64.703 52.443-117.151 117.151-117.151 64.705 0 117.151 52.448 117.151 117.151 0.001 64.706-52.446 117.151-117.151 117.151v0 0 0zM511.998 557.456z" p-id="1923"></path></svg>