<?xml version="1.0" encoding="UTF-8"?>
<svg width="96px" height="42px" viewBox="0 0 96 42" version="1.1" xmlns="http://www.w3.org/2000/svg" xmlns:xlink="http://www.w3.org/1999/xlink">
    <!-- Generator: Sketch 47.1 (45422) - http://www.bohemiancoding.com/sketch -->
    <title>Group 3</title>
    <desc>Created with Sketch.</desc>
    <defs>
        <rect id="path-1" x="0" y="0" width="142" height="36" rx="18"></rect>
        <filter x="-3.2%" y="-12.5%" width="106.3%" height="125.0%" filterUnits="objectBoundingBox" id="filter-2">
            <feOffset dx="0" dy="0" in="SourceAlpha" result="shadowOffsetOuter1"></feOffset>
            <feGaussianBlur stdDeviation="1.5" in="shadowOffsetOuter1" result="shadowBlurOuter1"></feGaussianBlur>
            <feComposite in="shadowBlurOuter1" in2="SourceAlpha" operator="out" result="shadowBlurOuter1"></feComposite>
            <feColorMatrix values="0 0 0 0 0   0 0 0 0 0   0 0 0 0 0  0 0 0 0.2 0" type="matrix" in="shadowBlurOuter1"></feColorMatrix>
        </filter>
    </defs>
    <g id="Page-1" stroke="none" stroke-width="1" fill="none" fill-rule="evenodd">
        <g id="有赞积分-copy-2" transform="translate(-279.000000, -72.000000)">
            <g id="Group-3" transform="translate(282.000000, 75.000000)">
                <g id="Rectangle-7">
                    <use fill="black" fill-opacity="1" filter="url(#filter-2)" xlink:href="#path-1"></use>
                    <use fill-opacity="0.8" fill="#000000" fill-rule="evenodd" xlink:href="#path-1"></use>
                </g>
                <path d="M22.968509,27 L25.0944072,27 C26.1948897,27 27.0928827,26.100835 27.0928827,24.9916588 L27.0928827,18.6374249 L27.6104627,18.6374249 C29.2743198,18.6374249 29.6402791,17.7164032 28.4349421,16.5802653 L21.9512154,10.4687737 C21.1500701,9.71362263 19.8530383,9.71429918 19.0526108,10.4687737 L12.5688841,16.5802653 C11.3655347,17.7145297 11.7326791,18.6374249 13.3933635,18.6374249 L14.0281357,18.6374249 L14.0281357,24.9916588 C14.0281357,26.0981345 14.9228836,27 16.0266112,27 L18.0741277,27 L18.0741277,22.0883379 C18.0741277,21.5411978 18.5258065,21.0976531 19.0645788,21.0976531 L21.9780579,21.0976531 C22.5250689,21.0976531 22.968509,21.5485859 22.968509,22.0883379 L22.968509,27 Z" id="Path" fill="#FFFFFF"></path>
            </g>
        </g>
    </g>
</svg>