<?xml version="1.0" encoding="UTF-8"?>
<svg width="16px" height="15px" viewBox="0 0 16 15" version="1.1" xmlns="http://www.w3.org/2000/svg" xmlns:xlink="http://www.w3.org/1999/xlink">
    <!-- Generator: Sketch 47.1 (45422) - http://www.bohemiancoding.com/sketch -->
    <title>Path</title>
    <desc>Created with Sketch.</desc>
    <defs></defs>
    <g id="Page-1" stroke="none" stroke-width="1" fill="none" fill-rule="evenodd">
        <g id="有赞积分-copy-2" transform="translate(-293.000000, -86.000000)" fill="#FFFFFF">
            <g id="Group-3" transform="translate(282.000000, 77.000000)">
                <path d="M21.29148,23.7275864 L23.1185671,23.7275864 C24.2301433,23.7275864 25.1224936,22.8336669 25.1224936,21.7309613 L25.1224936,16.5104239 L25.3978924,16.5104239 C27.0448433,16.5104239 27.3886998,15.6279777 26.1457428,14.5394251 L20.5099569,9.60373624 C19.6760653,8.87343356 18.3244458,8.87356248 17.4907014,9.60373624 L11.8549156,14.5394251 C10.6098779,15.6297999 10.9467825,16.5104239 12.6027659,16.5104239 L12.9870212,16.5104239 L12.9870212,21.7309613 C12.9870212,22.8267278 13.8842097,23.7275864 14.9909477,23.7275864 L16.7452283,23.7275864 L16.7452283,19.63199 C16.7452283,19.0806372 17.1977611,18.6336774 17.7541889,18.6336774 L20.2825194,18.6336774 C20.839753,18.6336774 21.29148,19.0751252 21.29148,19.63199 L21.29148,23.7275864 Z" id="Path"></path>
            </g>
        </g>
    </g>
</svg>