<?xml version="1.0" standalone="no"?><!DOCTYPE svg PUBLIC "-//W3C//DTD SVG 1.1//EN" "http://www.w3.org/Graphics/SVG/1.1/DTD/svg11.dtd"><svg t="1517219192148" class="icon" style="" viewBox="0 0 1024 1024" version="1.1" xmlns="http://www.w3.org/2000/svg" p-id="1329" xmlns:xlink="http://www.w3.org/1999/xlink" width="200" height="200"><defs><style type="text/css"></style></defs><path d="M261.27473778 367.96188445c-34.69084445 0-62.81329778 29.16465778-62.81329778 65.15598222 0 35.99587555 28.12245333 65.16280889 62.81329778 65.16280888 34.68629333 0 62.80874667-29.16693333 62.80874667-65.16280888C324.08348445 397.12768 295.96103111 367.96188445 261.27473778 367.96188445L261.27473778 367.96188445z" p-id="1330" fill="#A4a4a4"></path><path d="M512.52451555 367.96188445c-34.69084445 0-62.81443555 29.16465778-62.81443555 65.15598222 0 35.99587555 28.12814222 65.16280889 62.81443555 65.16280888 34.68629333 0 62.80988445-29.16693333 62.80988445-65.16280888C575.3344 397.12768 547.21080889 367.96188445 512.52451555 367.96188445L512.52451555 367.96188445z" p-id="1331" fill="#A4a4a4"></path><path d="M763.77543111 367.96188445c-34.69312 0-62.81443555 29.16465778-62.81443556 65.15598222 0 35.99587555 28.12131555 65.16280889 62.81443556 65.16280888 34.68629333 0 62.80760889-29.16693333 62.80760889-65.16280888C826.58304 397.12768 798.46172445 367.96188445 763.77543111 367.96188445L763.77543111 367.96188445z" p-id="1332" fill="#A4a4a4"></path><path d="M889.39747555 42.18538667L135.64700445 42.18538667c-69.37258667 0-125.62204445 58.35320889-125.62204445 130.31992888l0 488.66076445c0 71.97127111 57.50670222 138.30826667 128.47786667 138.30826667l191.43907555 0c33.37102222 35.54986667 171.48131555 178.53098667 171.48131556 178.53098666 6.13148445 6.37838222 16.06997333 6.37838222 22.20259555 0 0 0 101.11431111-114.64704 166.99733334-178.53098666l195.91736888 0c70.97002667 0 128.47786667-66.34154667 128.47786667-138.30826667L1015.01838222 172.50417778C1015.01952 100.53745778 958.77461333 42.18538667 889.39747555 42.18538667zM952.83313778 661.38794667c0 36.03228445-30.22506667 73.84064-65.76241778 73.84064L694.12977778 735.22858667c-23.37336889 0-44.38357333 24.03328-44.38357333 24.03328L514.27555555 899.77173333 378.8288 759.26186667c0 0-25.80024889-24.03328-47.91409778-24.03328L137.97489778 735.22858667c-35.53848889 0-65.75672889-37.80835555-65.75672889-73.84064L72.21816889 172.03768889c0-36.04138667 28.16113778-65.25496889 62.89635556-65.25496889l754.81429333 0c34.73635555 0 62.90432 29.21358222 62.90432 65.25496889L952.83313778 661.38794667z" p-id="1333" fill="#A4a4a4"></path><path d="M952.21191111 661.16608" p-id="1334" fill="#A4a4a4"></path></svg>