<svg width="21px" height="14px" viewBox="0 0 21 14" version="1.1" xmlns="http://www.w3.org/2000/svg" xmlns:xlink="http://www.w3.org/1999/xlink">
    <g id="Page-1" stroke="none" stroke-width="1" fill="none" fill-rule="evenodd">
        <g id="1020微贴详情评论" transform="translate(-15.000000, -191.000000)" fill-rule="nonzero" fill="#A4A4A4">
            <g id="Group-2" transform="translate(12.000000, 188.000000)">
                <g id="Group-15-Copy-3" transform="translate(3.000000, 3.000000)">
                    <path d="M10.5,10.5 C12.4329966,10.5 14,8.93299662 14,7 C14,5.06700338 12.4329966,3.5 10.5,3.5 C8.56700338,3.5 7,5.06700338 7,7 C7,8.93299662 8.56700338,10.5 10.5,10.5 L10.5,10.5 Z M10.5,9.86363636 C8.91845731,9.86363636 7.63636364,8.58154269 7.63636364,7 C7.63636364,5.41845731 8.91845731,4.13636364 10.5,4.13636364 C12.0815427,4.13636364 13.3636364,5.41845731 13.3636364,7 C13.3636364,8.58154269 12.0815427,9.86363636 10.5,9.86363636 L10.5,9.86363636 Z" id="Shape"></path>
                    <path d="M10.5,14 C13.4155529,14 16.0649366,13.015541 18.1241702,11.3734242 C19.8661346,9.98431062 21,8.22968733 21,7 C21,5.77031267 19.8661346,4.01568938 18.1241702,2.62657585 C16.0649366,0.98445896 13.4155529,0 10.5,0 C7.58444713,2.47276946e-16 4.9350634,0.98445896 2.87582983,2.62657585 C1.1338654,4.01568938 0,5.77031267 0,7 C1.41301112e-16,8.22968733 1.1338654,9.98431062 2.87582983,11.3734242 C4.9350634,13.015541 7.58444713,14 10.5,14 L10.5,14 Z M10.5,13.3636364 C7.73313443,13.3636364 5.22227908,12.4306518 3.27258616,10.8758871 C1.66717424,9.59566614 0.636363636,8.00051711 0.636363636,7 C0.636363636,5.99948289 1.66717424,4.40433386 3.27258616,3.12411287 C5.22227908,1.56934817 7.73313443,0.636363636 10.5,0.636363636 C13.2668656,0.636363636 15.7777209,1.56934817 17.7274138,3.12411287 C19.3328258,4.40433386 20.3636364,5.99948289 20.3636364,7 C20.3636364,8.00051711 19.3328258,9.59566614 17.7274138,10.8758871 C15.7777209,12.4306518 13.2668656,13.3636364 10.5,13.3636364 L10.5,13.3636364 Z" id="Shape"></path>
                </g>
            </g>
        </g>
    </g>
</svg>
