<?xml version="1.0" standalone="no"?><!DOCTYPE svg PUBLIC "-//W3C//DTD SVG 1.1//EN" "http://www.w3.org/Graphics/SVG/1.1/DTD/svg11.dtd"><svg t="1516686482446" class="icon" style="" viewBox="0 0 1024 1024" version="1.1" xmlns="http://www.w3.org/2000/svg" p-id="1916" xmlns:xlink="http://www.w3.org/1999/xlink" width="200" height="200"><defs><style type="text/css"></style></defs><path d="M758.00895 333.071841c-29.225625-28.851095-44.069705-33.038464-48.494481-31.531134-4.438079 1.561565-4.066619 15.592117-4.066619 15.592117-5.570879 176.645163-101.095489 202.843848-101.095489 202.843848C668.7613 229.378178 478.82953 97.190553 459.932134 85.809341c-18.87079-11.381212-29.983895-17.08512-43.684942-17.08512-13.671371 0-16.269545 34.170241-16.269545 34.170241-6.692423 180.056865-55.265698 207.562313-155.550729 291.160289-98.295723 81.957617-98.295723 211.414037-98.295723 211.414037 0 275.80558 228.842988 345.784374 243.824191 344.665901 14.992459-1.160429 6.661723-20.510126 6.661723-20.510126-57.211003-182.267207 5.783727-264.946254 5.783727-264.946254C425.723008 828.796156 543.266098 937.075255 543.266098 937.075255c36.086893 39.872103 63.84612 23.905456 63.84612 23.905456 18.351973-7.383154 207.188806-59.875692 254.937297-260.9615C909.866566 498.882238 787.28881 361.978195 758.00895 333.071841L758.00895 333.071841z" p-id="1917" fill="#ffffff"></path></svg>