<?xml version="1.0" standalone="no"?><!DOCTYPE svg PUBLIC "-//W3C//DTD SVG 1.1//EN" "http://www.w3.org/Graphics/SVG/1.1/DTD/svg11.dtd"><svg t="1517219037587" class="icon" style="" viewBox="0 0 1024 1024" version="1.1" xmlns="http://www.w3.org/2000/svg" p-id="1267" xmlns:xlink="http://www.w3.org/1999/xlink" width="200" height="200"><defs><style type="text/css"></style></defs><path d="M979.56067555 411.13827555c-25.49646222-32.16042667-63.66776889-50.60152889-104.71424-50.60152888l-251.0279111 1.03879111c12.75790222-35.58172445 19.79278222-69.69230222 26.34979555-106.65528889 6.90062222-38.89834667 7.17141333-114.74488889-14.43043555-154.33728-26.56597333-48.70144-68.05617778-80.27363555-127.07612445-89.04362667-26.74119111-3.96970667-49.73454222 1.16394667-68.35882667 15.27125333-37.63882667 28.51498667-44.544 82.78016-52.54826666 145.60938667-6.39431111 50.22833778-13.64309333 107.15818667-38.00405334 147.96572445-16.25429333 27.23498667-47.90158222 63.4368-134.65144888 63.4368l-90.52956445 0c-60.28515555 0-109.33134222 49.02798222-109.33134222 109.29152l0 413.18855111c0 60.26126222 49.04618667 109.29038222 109.33134222 109.29038222l659.53564445 0c30.02709333 0 59.50919111-10.27072 83.03160888-28.91889778 23.53038222-18.65272889 40.24775111-45.01959111 47.08807112-74.24455111l90.7411911-387.90599111C1014.30727111 484.59889778 1005.04917333 443.26570667 979.56067555 411.13827555zM206.64661333 965.30773333l-83.95207111 0c-21.97162667 0-39.84384-17.85856-39.84384-39.80174222L82.85070222 473.91402667c0-21.94204445 17.87221333-39.79946667 39.84384-39.79946667l83.95207111 0L206.64661333 965.30773333zM951.29713778 507.66620445l-95.50620445 408.28928c-6.79367111 29.05315555-32.40277333 49.35224889-62.26830222 49.35224888L256.88177778 965.30773333 256.88177778 448.18545778c64.79985778-12.37219555 113.54339555-45.37002667 145.31811555-98.59754667 33.84888889-56.69888 42.55061333-125.05884445 50.23402667-185.36561778 3.47136-27.25205333 6.74360889-52.99427555 11.95121778-72.74268444 5.58421333-21.17973333 11.36184889-27.38289778 13.58734222-29.07136 2.54520889-1.92967111 7.37735111-2.37795555 14.34851555-1.34371556 38.48078222 5.71392 65.18670222 23.16515555 81.64124445 53.33560889 33.76924445 61.89397333 18.85297778 166.35904-13.33475555 237.56003556-7.70730667 17.05756445-6.27370667 36.59548445 3.84796444 52.27064889 10.10232889 15.66264889 27.29642667 25.00721778 45.98101333 25.00721778l278.57123556 0c19.65169778 0 37.91530667 8.82232889 50.12024889 24.2119111C951.33696 468.81336889 955.76405333 488.57998222 951.29713778 507.66620445z" p-id="1268" fill="#A4a4a4"></path><path d="M703.26385778 510.65514667" p-id="1269" fill="#A4a4a4"></path></svg>