<?xml version="1.0" encoding="UTF-8"?>
<svg width="40px" height="40px" viewBox="0 0 40 40" version="1.1" xmlns="http://www.w3.org/2000/svg" xmlns:xlink="http://www.w3.org/1999/xlink">
    <!-- Generator: Sketch 47.1 (45422) - http://www.bohemiancoding.com/sketch -->
    <title>upvote</title>
    <desc>Created with Sketch.</desc>
    <defs></defs>
    <g id="Page-1" stroke="none" stroke-width="1" fill="none" fill-rule="evenodd">
        <g id="平台-我的-copy" transform="translate(-15.000000, -154.000000)" fill="#F04042">
            <g id="upvote" transform="translate(15.000000, 154.000000)">
                <polygon id="Shape" fill-rule="nonzero" points="14 15.3333333 14 29.3333333 14 30 15.3333333 30 15.3333333 29.3333333 15.3333333 15.3333333 15.3333333 14.6666667 14 14.6666667"></polygon>
                <path d="M20,40 C8.954305,40 0,31.045695 0,20 C0,8.954305 8.954305,0 20,0 C31.045695,0 40,8.954305 40,20 C40,31.045695 31.045695,40 20,40 Z M11.3333333,18.6007376 L11.3333333,27.0035404 C11.3333333,27.3591147 11.6117689,27.6381486 11.9552366,27.6381485 L15.0994843,27.6381481 L23.733431,28.6516115 C24.8074739,28.777684 25.9649025,28.0614469 26.3253197,27.0526377 L28.4752106,21.0350832 C29.0818012,19.3372333 28.1185687,17.9661294 26.3260954,17.9661294 L22.2208675,17.9661294 C23.4543543,14.083722 22.4340902,12.3414032 21.5710461,11.4930474 C20.7080019,10.6446915 18.9333728,10.0949555 18.1839152,11.6648187 C17.4344576,13.2346818 19.940485,16.9596376 15.0994844,17.9661294 C13.4253269,17.9661294 11.9596596,17.9661294 11.9596596,17.9661294 C11.6073771,17.9661294 11.3333333,18.2502531 11.3333333,18.6007376 Z" id="Oval-17"></path>
            </g>
        </g>
    </g>
</svg>