<?xml version="1.0" encoding="UTF-8"?>
<svg width="16px" height="17px" viewBox="0 0 16 17" version="1.1" xmlns="http://www.w3.org/2000/svg" xmlns:xlink="http://www.w3.org/1999/xlink">
    <!-- Generator: Sketch 47.1 (45422) - http://www.bohemiancoding.com/sketch -->
    <title>Group</title>
    <desc>Created with Sketch.</desc>
    <defs></defs>
    <g id="Page-1" stroke="none" stroke-width="1" fill="none" fill-rule="evenodd">
        <g id="积分" transform="translate(-56.000000, -175.000000)">
            <g id="Group" transform="translate(56.000000, 175.000000)">
                <path d="M1.92,4.09482361 L14.08,4.09482361 C15.1403867,4.09482361 16,4.95443689 16,6.01482361 C16,7.07521033 15.1403867,7.93482361 14.08,7.93482361 L1.92,7.93482361 C0.85961328,7.93482361 1.2985992e-16,7.07521033 0,6.01482361 C-1.2985992e-16,4.95443689 0.85961328,4.09482361 1.92,4.09482361 Z" id="Rectangle-4" fill="#FFFFFF" fill-rule="nonzero"></path>
                <path d="M1.28,7.04 L14.72,7.04 L14.72,14.72 C14.72,15.7803867 13.8603867,16.64 12.8,16.64 L3.2,16.64 C2.13961328,16.64 1.28,15.7803867 1.28,14.72 L1.28,7.04 Z" id="Rectangle-5" fill="#FFFFFF" fill-rule="nonzero"></path>
                <path d="M1.92,4.99082361 C1.35446042,4.99082361 0.896,5.44928402 0.896,6.01482361 C0.896,6.58036319 1.35446042,7.03882361 1.92,7.03882361 L14.08,7.03882361 C14.6455396,7.03882361 15.104,6.58036319 15.104,6.01482361 C15.104,5.44928402 14.6455396,4.99082361 14.08,4.99082361 L1.92,4.99082361 Z" id="Path" fill="#FA323B"></path>
                <path d="M2.176,14.72 C2.176,15.2855396 2.63446042,15.744 3.2,15.744 L12.8,15.744 C13.3655396,15.744 13.824,15.2855396 13.824,14.72 L13.824,7.936 L2.176,7.936 L2.176,14.72 Z" id="Path" fill="#FA323B"></path>
                <path d="M7.552,4.45323376 L7.552,11.4932338 C7.552,11.7406573 7.75257643,11.9412338 8,11.9412338 C8.24742357,11.9412338 8.448,11.7406573 8.448,11.4932338 L8.448,4.45323376 C8.448,4.2058102 8.24742357,4.00523376 8,4.00523376 C7.75257643,4.00523376 7.552,4.2058102 7.552,4.45323376 Z" id="Line-2" stroke="#FFFFFF" stroke-width="0.2" fill="#FFFFFF" fill-rule="nonzero"></path>
                <path d="M3.84321616,0.955603539 L7.46360288,4.57599026 C7.63855776,4.75094514 7.92221567,4.75094514 8.09717056,4.57599026 C8.27212544,4.40103538 8.27212544,4.11737747 8.09717056,3.94242258 L4.47678384,0.322035863 C4.30182896,0.14708098 4.01817104,0.14708098 3.84321616,0.322035863 C3.66826128,0.496990746 3.66826128,0.780648656 3.84321616,0.955603539 Z" id="Line-3" stroke="#FA323B" stroke-width="0.2" fill="#FA323B" fill-rule="nonzero"></path>
                <path d="M7.90282944,0.955603539 L11.5232162,4.57599026 C11.698171,4.75094514 11.981829,4.75094514 12.1567838,4.57599026 C12.3317387,4.40103538 12.3317387,4.11737747 12.1567838,3.94242258 L8.53639712,0.322035863 C8.36144224,0.14708098 8.07778433,0.14708098 7.90282944,0.322035863 C7.72787456,0.496990746 7.72787456,0.780648656 7.90282944,0.955603539 Z" id="Line-3" stroke="#FA323B" stroke-width="0.2" fill="#FA323B" fill-rule="nonzero" transform="translate(10.029807, 2.449013) scale(-1, 1) translate(-10.029807, -2.449013) "></path>
            </g>
        </g>
    </g>
</svg>