<?xml version="1.0" encoding="UTF-8"?>
<svg width="22px" height="21px" viewBox="0 0 22 21" version="1.1" xmlns="http://www.w3.org/2000/svg" xmlns:xlink="http://www.w3.org/1999/xlink">
    <!-- Generator: Sketch 47.1 (45422) - http://www.bohemiancoding.com/sketch -->
    <title>btn_home</title>
    <desc>Created with Sketch.</desc>
    <defs></defs>
    <g id="Page-1" stroke="none" stroke-width="1" fill="none" fill-rule="evenodd">
        <g id="帖子详情-copy-2" transform="translate(-253.000000, -1117.000000)" stroke="#000" stroke-width="1">
            <g id="bottom-bar-copy" transform="translate(0.000000, 1107.000000)">
                <g id="btn_home" transform="translate(255.000000, 12.000000)">
                    <path d="M1.76672631,9.23879473 L1.49775788,9.23879473 C-0.711085079,9.23879473 -1.30403571,7.6680924 0.355540678,6.21467438 L7.34288149,0.0953254059 C8.40113285,-0.831466288 10.0853357,-0.832084063 11.1442925,0.0953254059 L18.1316333,6.21467438 C19.7928173,7.66950031 19.1978758,9.23879473 16.9894161,9.23879473 L16.8449366,9.23879473 L16.8449366,14.8834721 C16.8449366,16.3262446 15.685164,17.4923918 14.2417473,17.4923918 L11.263763,17.4923918 L11.263763,12.071422 C11.263763,11.8451582 11.0853534,11.6669622 10.8613194,11.6669622 L7.66708159,11.6669622 C7.44198052,11.6669622 7.264638,11.8453417 7.264638,12.071422 L7.264638,17.4923918 L4.36991566,17.4923918 C2.92904393,17.4923918 1.76672631,16.3304811 1.76672631,14.8834721 L1.76672631,9.23879473 Z" id="Path"></path>
                </g>
            </g>
        </g>
    </g>
</svg>