<?xml version="1.0" encoding="UTF-8"?>
<svg width="28px" height="24px" viewBox="0 0 28 24" version="1.1" xmlns="http://www.w3.org/2000/svg" xmlns:xlink="http://www.w3.org/1999/xlink">
    <!-- Generator: Sketch 47.1 (45422) - http://www.bohemiancoding.com/sketch -->
    <title>2</title>
    <desc>Created with Sketch.</desc>
    <defs></defs>
    <g id="Page-1" stroke="none" stroke-width="1" fill="none" fill-rule="evenodd">
        <g id="首页-活跃用户" transform="translate(-15.000000, -395.000000)">
            <g id="Group-3" transform="translate(0.000000, 302.000000)">
                <g id="2" transform="translate(15.000000, 93.000000)">
                    <path d="M2.31171098,7.3091861 L5.33333333,20 L22.6666667,20 L25.688289,7.3091861 C25.7898607,7.32508189 25.8939667,7.33333333 26,7.33333333 C27.1045695,7.33333333 28,6.43790283 28,5.33333333 C28,4.22876383 27.1045695,3.33333333 26,3.33333333 C24.8954305,3.33333333 24,4.22876383 24,5.33333333 C24,5.9893151 24.3158125,6.5715349 24.8036885,6.93624376 L18.3333333,12 L14.579474,3.91476453 C15.4014766,3.66633182 16,2.90306223 16,2 C16,0.8954305 15.1045695,0 14,0 C12.8954305,0 12,0.8954305 12,2 C12,2.90306223 12.5985234,3.66633182 13.420526,3.91476453 L9.66666667,12 L3.19631147,6.93624376 C3.68418749,6.5715349 4,5.9893151 4,5.33333333 C4,4.22876383 3.1045695,3.33333333 2,3.33333333 C0.8954305,3.33333333 0,4.22876383 0,5.33333333 C0,6.43790283 0.8954305,7.33333333 2,7.33333333 C2.10603325,7.33333333 2.21013927,7.32508189 2.31171098,7.3091861 Z" id="Rectangle-914" fill="#E4E4E4"></path>
                    <rect id="Rectangle-915" fill="#E4E4E4" x="5.33333333" y="21.3333333" width="17.3333333" height="2.66666667"></rect>
                    <path d="M17.036,19 L17.036,17.5 L14.096,17.5 L14.096,17.476 L14.816,16.876 C15.944,15.868 16.892,14.824 16.892,13.516 C16.892,12.1 15.92,11.068 14.156,11.068 C13.1,11.068 12.188,11.428 11.6,11.872 L12.116,13.18 C12.524,12.868 13.112,12.532 13.784,12.532 C14.684,12.532 15.068,13.036 15.068,13.672 C15.044,14.584 14.216,15.46 12.512,16.984 L11.504,17.896 L11.504,19 L17.036,19 Z" fill="#FFFFFF"></path>
                </g>
            </g>
        </g>
    </g>
</svg>