<?xml version="1.0" encoding="UTF-8"?>
<svg width="28px" height="25px" viewBox="0 0 28 25" version="1.1" xmlns="http://www.w3.org/2000/svg" xmlns:xlink="http://www.w3.org/1999/xlink">
    <!-- Generator: Sketch 47.1 (45422) - http://www.bohemiancoding.com/sketch -->
    <title>1</title>
    <desc>Created with Sketch.</desc>
    <defs></defs>
    <g id="Page-1" stroke="none" stroke-width="1" fill="none" fill-rule="evenodd">
        <g id="首页-活跃用户" transform="translate(-15.000000, -322.000000)">
            <g id="Group-3" transform="translate(0.000000, 302.000000)">
                <g id="1" transform="translate(15.000000, 20.000000)">
                    <path d="M2.31171098,7.8091861 L5.33333333,20.5 L22.6666667,20.5 L25.688289,7.8091861 C25.7898607,7.82508189 25.8939667,7.83333333 26,7.83333333 C27.1045695,7.83333333 28,6.93790283 28,5.83333333 C28,4.72876383 27.1045695,3.83333333 26,3.83333333 C24.8954305,3.83333333 24,4.72876383 24,5.83333333 C24,6.4893151 24.3158125,7.0715349 24.8036885,7.43624376 L18.3333333,12.5 L14.579474,4.41476453 C15.4014766,4.16633182 16,3.40306223 16,2.5 C16,1.3954305 15.1045695,0.5 14,0.5 C12.8954305,0.5 12,1.3954305 12,2.5 C12,3.40306223 12.5985234,4.16633182 13.420526,4.41476453 L9.66666667,12.5 L3.19631147,7.43624376 C3.68418749,7.0715349 4,6.4893151 4,5.83333333 C4,4.72876383 3.1045695,3.83333333 2,3.83333333 C0.8954305,3.83333333 0,4.72876383 0,5.83333333 C0,6.93790283 0.8954305,7.83333333 2,7.83333333 C2.10603325,7.83333333 2.21013927,7.82508189 2.31171098,7.8091861 Z" id="Rectangle-914" fill="#FFD858"></path>
                    <rect id="Rectangle-915" fill="#FFD858" x="5.33333333" y="21.8333333" width="17.3333333" height="2.66666667"></rect>
                    <polygon fill="#FFFFFF" points="13.832 19.5 15.596 19.5 15.596 11.7 14.084 11.7 12.02 12.66 12.32 14.028 13.808 13.32 13.832 13.32"></polygon>
                </g>
            </g>
        </g>
    </g>
</svg>