<?xml version="1.0" encoding="UTF-8"?>
<svg width="28px" height="24px" viewBox="0 0 28 24" version="1.1" xmlns="http://www.w3.org/2000/svg" xmlns:xlink="http://www.w3.org/1999/xlink">
    <!-- Generator: Sketch 47.1 (45422) - http://www.bohemiancoding.com/sketch -->
    <title>3</title>
    <desc>Created with Sketch.</desc>
    <defs></defs>
    <g id="Page-1" stroke="none" stroke-width="1" fill="none" fill-rule="evenodd">
        <g id="首页-活跃用户" transform="translate(-15.000000, -466.000000)">
            <g id="Group-3" transform="translate(0.000000, 302.000000)">
                <g id="3" transform="translate(15.000000, 164.000000)">
                    <path d="M2.31171098,7.3091861 L5.33333333,20 L22.6666667,20 L25.688289,7.3091861 C25.7898607,7.32508189 25.8939667,7.33333333 26,7.33333333 C27.1045695,7.33333333 28,6.43790283 28,5.33333333 C28,4.22876383 27.1045695,3.33333333 26,3.33333333 C24.8954305,3.33333333 24,4.22876383 24,5.33333333 C24,5.9893151 24.3158125,6.5715349 24.8036885,6.93624376 L18.3333333,12 L14.579474,3.91476453 C15.4014766,3.66633182 16,2.90306223 16,2 C16,0.8954305 15.1045695,0 14,0 C12.8954305,0 12,0.8954305 12,2 C12,2.90306223 12.5985234,3.66633182 13.420526,3.91476453 L9.66666667,12 L3.19631147,6.93624376 C3.68418749,6.5715349 4,5.9893151 4,5.33333333 C4,4.22876383 3.1045695,3.33333333 2,3.33333333 C0.8954305,3.33333333 0,4.22876383 0,5.33333333 C0,6.43790283 0.8954305,7.33333333 2,7.33333333 C2.10603325,7.33333333 2.21013927,7.32508189 2.31171098,7.3091861 Z" id="Rectangle-914" fill="#D68F41"></path>
                    <rect id="Rectangle-915" fill="#D68F41" x="5.33333333" y="21.3333333" width="17.3333333" height="2.66666667"></rect>
                    <path d="M11.456,18.58 C11.912,18.868 12.764,19.132 13.772,19.132 C15.752,19.132 16.964,18.124 16.964,16.744 C16.964,15.724 16.208,15.016 15.272,14.848 L15.272,14.824 C16.232,14.488 16.7,13.84 16.7,13.012 C16.7,11.944 15.776,11.068 14.108,11.068 C13.1,11.068 12.164,11.356 11.696,11.656 L12.068,12.976 C12.392,12.784 13.064,12.508 13.7,12.508 C14.468,12.508 14.852,12.856 14.852,13.324 C14.852,13.984 14.072,14.212 13.46,14.224 L12.752,14.224 L12.752,15.532 L13.496,15.532 C14.3,15.532 15.068,15.88 15.068,16.648 C15.068,17.236 14.588,17.692 13.64,17.692 C12.896,17.692 12.152,17.38 11.828,17.212 L11.456,18.58 Z" id="3-copy" fill="#FFFFFF"></path>
                </g>
            </g>
        </g>
    </g>
</svg>