<?xml version="1.0" encoding="UTF-8"?>
<svg width="14px" height="15px" viewBox="0 0 14 15" version="1.1" xmlns="http://www.w3.org/2000/svg" xmlns:xlink="http://www.w3.org/1999/xlink">
    <!-- Generator: Sketch 47.1 (45422) - http://www.bohemiancoding.com/sketch -->
    <title>share icon</title>
    <desc>Created with Sketch.</desc>
    <defs></defs>
    <g id="Page-1" stroke="none" stroke-width="1" fill="none" fill-rule="evenodd" stroke-linecap="round" stroke-linejoin="round">
        <g id="1-第一次进入页面-copy-2" transform="translate(-79.000000, -601.000000)" stroke="#FFFFFF">
            <g id="Btn-Buy" transform="translate(15.000000, 586.000000)">
                <g id="share-icon" transform="translate(65.000000, 16.000000)">
                    <path d="M6.64285714,1 L4,1 L4,1 C1.790861,1 6.17636919e-16,2.790861 8.8817842e-16,5 L0,9 L8.8817842e-16,9 C1.15871992e-15,11.209139 1.790861,13 4,13 L8,13 L8,13 C10.209139,13 12,11.209139 12,9 L12,6.35714286" id="Line"></path>
                    <path d="M9,1 C9,1 9,1.66579723 9,2.5 L9,3.00104344 C9,3.55275191 9.44266033,4 9.99895656,4 L12,4" id="Line" transform="translate(10.500000, 2.500000) scale(-1, -1) rotate(30.000000) translate(-10.500000, -2.500000) "></path>
                    <path d="M12,2.00265932 C12,2.00265932 10.208067,1.86584779 8.18023158,3.55481186 C6.15239617,5.24377593 6,7 6,7" id="Line"></path>
                </g>
            </g>
        </g>
    </g>
</svg>