<?xml version="1.0" encoding="UTF-8"?>
<svg width="15px" height="15px" viewBox="0 0 15 15" version="1.1" xmlns="http://www.w3.org/2000/svg" xmlns:xlink="http://www.w3.org/1999/xlink">
    <!-- Generator: Sketch 47.1 (45422) - http://www.bohemiancoding.com/sketch -->
    <title>kyh_tixian_pic</title>
    <desc>Created with Sketch.</desc>
    <defs></defs>
    <g id="Page-1" stroke="none" stroke-width="1" fill="none" fill-rule="evenodd">
        <g id="1-第一次进入页面-copy-2" transform="translate(-146.000000, -499.000000)">
            <g id="kyh_tixian_pic" transform="translate(147.000000, 500.000000)">
                <circle id="Oval-4" stroke="#83492C" cx="6.5" cy="6.5" r="6.5"></circle>
                <g id="Group" transform="translate(3.000000, 3.000000)" fill="#83492C">
                    <path d="M3.50087376,3 C3.37305484,3 3.24523592,2.96354709 3.14804028,2.8901419 L0.146292752,0.639049561 C-0.0487642506,0.492738546 -0.0487642506,0.256044276 0.146292752,0.109733261 C0.341349755,-0.0365777537 0.657568445,-0.0365777537 0.851959724,0.109733261 L3.85370725,2.3608256 C4.04876425,2.50713662 4.04876425,2.74383089 3.85370725,2.8901419 C3.75651161,2.96354709 3.62869269,3 3.50087376,3" id="Fill-8"></path>
                    <path d="M6.49731903,5.8 L0.502680965,5.8 C0.225201072,5.8 0,5.6208 0,5.4 C0,5.1792 0.225201072,5 0.502680965,5 L6.49731903,5 C6.77479893,5 7,5.1792 7,5.4 C7,5.6208 6.77479893,5.8 6.49731903,5.8" id="Fill-12"></path>
                    <path d="M6.49731903,3.8 L0.502680965,3.8 C0.225201072,3.8 0,3.6208 0,3.4 C0,3.1792 0.225201072,3 0.502680965,3 L6.49731903,3 C6.77479893,3 7,3.1792 7,3.4 C7,3.6208 6.77479893,3.8 6.49731903,3.8" id="Fill-12"></path>
                    <path d="M3.49017199,7 C3.21959705,7 3,6.83574501 3,6.63335941 L3,2.36664059 C3,2.16425499 3.21959705,2 3.49017199,2 C3.76074693,2 3.98034398,2.16425499 3.98034398,2.36664059 L3.98034398,6.63335941 C3.98034398,6.83574501 3.76074693,7 3.49017199,7" id="Fill-14"></path>
                    <path d="M3.4940285,3 C3.36751503,3 3.24100156,2.96392538 3.14479862,2.89128197 C2.95173379,2.74648931 2.95173379,2.51225137 3.14479862,2.36745872 L6.1560827,0.10859449 C6.34914752,-0.0361981633 6.66213656,-0.0361981633 6.85520138,0.10859449 C7.04826621,0.253387143 7.04826621,0.48811926 6.85520138,0.632911914 L3.84325838,2.89128197 C3.74705543,2.96392538 3.62054197,3 3.4940285,3" id="Fill-16"></path>
                </g>
            </g>
        </g>
    </g>
</svg>