<?xml version="1.0" standalone="no"?><!DOCTYPE svg PUBLIC "-//W3C//DTD SVG 1.1//EN" "http://www.w3.org/Graphics/SVG/1.1/DTD/svg11.dtd"><svg t="1516861337526" class="icon" style="" viewBox="0 0 1024 1024" version="1.1" xmlns="http://www.w3.org/2000/svg" p-id="2041" xmlns:xlink="http://www.w3.org/1999/xlink" width="200" height="200"><defs><style type="text/css"></style></defs><path d="M129.297067 349.5936c55.825067 26.811733 97.655467 64.4608 125.917866 113.220267 7.970133 13.755733 24.302933 20.599467 39.406934 15.6672 68.4032-22.340267 142.4384-33.979733 217.378133-33.979734s148.974933 11.656533 217.361067 33.979734c15.104 4.932267 31.4368-1.911467 39.406933-15.6672 28.2624-48.7424 70.0928-86.391467 125.917867-113.220267C932.471467 331.451733 955.733333 292.386133 955.733333 250.487467v-4.4032c0-75.093333-61.44-136.533333-136.533333-136.533334H204.8c-75.093333 0-136.533333 61.44-136.533333 136.533334v4.4032c0 41.898667 23.261867 80.9472 61.0304 99.106133z" fill="#dddddd" p-id="2042"></path><path d="M1003.4688 427.332267c-3.396267-3.9424-8.311467-7.850667-13.687467-11.485867-19.285333-12.970667-44.3904-15.069867-65.297066-4.932267-59.460267 28.842667-97.7408 72.448-116.6848 131.976534a34.133333 34.133333 0 0 1-46.353067 20.855466C686.148267 530.3808 599.893333 512.750933 512 512.750933s-174.148267 17.629867-249.429333 50.9952a34.133333 34.133333 0 0 1-46.353067-20.855466c-18.944-59.528533-57.2416-103.1168-116.6848-131.976534-20.906667-10.154667-46.011733-8.0384-65.297067 4.932267-5.393067 3.618133-10.2912 7.5264-13.687466 11.485867-29.5936 34.372267-24.917333 86.698667 7.150933 118.766933L68.266667 586.7008v173.9264c0 28.16 23.04 51.2 51.2 51.2h785.066666c28.16 0 51.2-23.04 51.2-51.2V586.7008l40.584534-40.584533c32.068267-32.068267 36.744533-84.394667 7.150933-118.784zM290.133333 846.1824h-68.266666c-18.773333 0-34.133333 15.36-34.133334 34.133333s15.36 34.133333 34.133334 34.133334h68.266666c18.773333 0 34.133333-15.36 34.133334-34.133334s-15.36-34.133333-34.133334-34.133333zM802.133333 846.1824h-68.266666c-18.773333 0-34.133333 15.36-34.133334 34.133333s15.36 34.133333 34.133334 34.133334h68.266666c18.773333 0 34.133333-15.36 34.133334-34.133334s-15.36-34.133333-34.133334-34.133333z" fill="#dddddd" p-id="2043"></path></svg>