<?xml version="1.0" standalone="no"?><!DOCTYPE svg PUBLIC "-//W3C//DTD SVG 1.1//EN" "http://www.w3.org/Graphics/SVG/1.1/DTD/svg11.dtd"><svg t="1516601804271" class="icon" style="" viewBox="0 0 1024 1024" version="1.1" xmlns="http://www.w3.org/2000/svg" p-id="6725" xmlns:xlink="http://www.w3.org/1999/xlink" width="200" height="200"><defs><style type="text/css"></style></defs><path d="M602.224 891h-480.96C54.392 891 0 836.64 0 769.736v-515.44c0-66.872 54.392-121.304 121.264-121.304h480.96c66.864 0 121.296 54.424 121.296 121.304v88.312l253.032-146.104a31.76 31.76 0 0 1 31.632 0A31.632 31.632 0 0 1 1024 223.904v576.232a31.704 31.704 0 0 1-15.816 27.424 31.76 31.76 0 0 1-31.632 0L723.52 681.464v88.272c0 66.904-54.424 121.264-121.296 121.264z m-480.96-694.744c-32 0-58.008 26.04-58.008 58.04v515.44c0 32 26.008 58.008 58.008 58.008h480.96c32 0 58.04-26.008 58.04-58.008V626.664c0-11.304 6.024-21.752 15.816-27.432a31.744 31.744 0 0 1 31.624 0l253.04 146.104V278.688l-253.04 146.104a31.744 31.744 0 0 1-31.624 0 31.632 31.632 0 0 1-15.816-27.4V254.296c0-32-26.04-58.04-58.04-58.04h-480.96z" fill="#b2b2b2" p-id="6726"></path></svg>